<svg xmlns="http://www.w3.org/2000/svg" width="96" height="96" viewBox="0 0 96 96" version="1.1">
	<path d="M 0 48.010 L 0 96.019 48.250 95.760 L 96.500 95.500 96.760 47.750 L 97.019 0 48.510 0 L 0 0 0 48.010 M 0.462 48.500 C 0.463 74.900, 0.592 85.556, 0.749 72.181 C 0.907 58.805, 0.907 37.205, 0.749 24.181 C 0.591 11.156, 0.462 22.100, 0.462 48.500 M 47.963 4.883 C 46.249 6.597, 44.066 8, 43.112 8 C 40.091 8, 37 11.783, 37 15.480 C 37 17.351, 36.550 19.160, 36 19.500 C 34.198 20.614, 34.945 22.799, 38.368 26.429 C 42.318 30.617, 43 30.802, 43 27.691 C 43 26.421, 43.577 24.593, 44.282 23.628 C 45.388 22.117, 45.511 22.436, 45.177 25.937 C 44.876 29.094, 45.133 30, 46.328 30 C 47.173 30, 48.161 29.067, 48.523 27.927 C 49.088 26.148, 49.714 25.945, 52.954 26.492 C 55.702 26.956, 57.153 26.704, 58.292 25.565 C 59.153 24.704, 60.739 24, 61.818 24 C 67.853 24, 71.002 14.488, 66.090 11.096 C 64.820 10.218, 62.367 8.046, 60.640 6.270 C 58.913 4.493, 56.056 2.753, 54.290 2.403 C 51.582 1.866, 50.593 2.254, 47.963 4.883 M 26.632 26.117 C 23.253 30.064, 20 37.418, 20 41.109 C 20 42.164, 19.106 42.988, 17.750 43.180 C 14.861 43.591, 14.814 46.402, 17.690 46.812 C 19.201 47.027, 19.975 47.932, 20.190 49.735 C 20.647 53.583, 23 53.875, 23 50.083 C 23 48.009, 23.491 47, 24.500 47 C 25.333 47, 26 46.111, 26 45 C 26 43.889, 25.333 43, 24.500 43 C 20.918 43, 24.156 33.493, 29.664 27.840 C 31.625 25.827, 32.926 23.690, 32.556 23.090 C 31.423 21.258, 30.300 21.831, 26.632 26.117 M 65 25.878 C 65 26.360, 65.747 27.373, 66.659 28.128 C 68.587 29.722, 72.976 38.739, 72.990 41.133 C 72.996 42.032, 72.100 43.002, 71 43.290 C 68.398 43.970, 68.429 46.038, 71.051 46.724 C 72.760 47.171, 72.994 47.779, 72.453 50.380 C 70.827 58.195, 64.070 65.783, 56.252 68.573 C 51.276 70.349, 49 70.326, 49 68.500 C 49 67.675, 48.325 67, 47.500 67 C 46.675 67, 46 67.724, 46 68.608 C 46 69.820, 45.383 70.067, 43.500 69.608 C 42.125 69.274, 39.816 68.711, 38.370 68.359 C 34.114 67.322, 35.986 70.273, 40.577 71.838 C 53.811 76.349, 70.631 66.972, 74.811 52.751 C 76.034 48.588, 76.983 47.002, 78.250 47.001 C 79.333 47.001, 80 46.238, 80 45 C 80 43.706, 79.333 43, 78.111 43 C 76.724 43, 76.038 42.014, 75.526 39.285 C 74.689 34.824, 72.507 30.311, 69.709 27.250 C 67.650 24.998, 65 24.226, 65 25.878 M 40 33.500 C 40 34.325, 40.450 35, 41 35 C 41.550 35, 42 35.910, 42 37.023 C 42 38.840, 42.500 39, 46.939 38.596 C 50.104 38.309, 52.241 38.585, 52.888 39.366 C 53.444 40.035, 54.034 43.715, 54.200 47.542 C 54.584 56.451, 56.408 56.595, 56.796 47.747 C 57.065 41.588, 56.819 40.597, 53.998 36.497 C 50.970 32.096, 50.788 32, 45.452 32 C 41.272 32, 40 32.350, 40 33.500 M 37.708 40.626 C 37.318 41.015, 37 42.158, 37 43.167 C 37 44.783, 37.896 45, 44.570 45 C 51.847 45, 52.127 44.913, 51.820 42.750 C 51.530 40.714, 50.877 40.472, 44.958 40.209 C 41.359 40.049, 38.097 40.237, 37.708 40.626 M 37.423 47.340 C 37.121 48.127, 37.015 50.735, 37.187 53.136 L 37.500 57.500 44.500 57.500 L 51.500 57.500 51.500 52 L 51.500 46.500 44.736 46.204 C 39.587 45.979, 37.841 46.250, 37.423 47.340 M 6 55.033 C 6 55.602, 7.125 58.287, 8.500 61 C 9.875 63.713, 11 67.298, 11 68.967 C 11 71.333, 11.440 72, 13 72 C 14.473 72, 15 71.333, 15 69.471 C 15 68.081, 16.329 64.310, 17.954 61.092 C 19.578 57.874, 20.628 54.962, 20.287 54.620 C 18.569 52.902, 16.100 54.287, 14.721 57.742 L 13.229 61.484 11.666 57.742 C 10.580 55.144, 9.475 54, 8.051 54 C 6.923 54, 6 54.465, 6 55.033 M 22.750 55.080 C 21.357 55.892, 21 57.476, 21 62.850 C 21 66.767, 21.504 70.104, 22.200 70.800 C 22.860 71.460, 25.245 72, 27.500 72 C 29.755 72, 32.140 71.460, 32.800 70.800 C 33.497 70.103, 34 66.763, 34 62.835 C 34 57.170, 33.685 55.902, 32.066 55.035 C 29.624 53.729, 25.032 53.751, 22.750 55.080 M 25.701 58.632 C 25.316 59.018, 25 61.283, 25 63.667 C 25 67.647, 25.208 68, 27.555 68 C 29.978 68, 30.094 67.756, 29.805 63.259 C 29.591 59.939, 29.036 58.430, 27.951 58.224 C 27.099 58.063, 26.087 58.246, 25.701 58.632 M 37.180 61.250 C 37.477 63.339, 38.002 63.500, 44.500 63.500 C 50.998 63.500, 51.523 63.339, 51.820 61.250 C 52.127 59.085, 51.850 59, 44.500 59 C 37.150 59, 36.873 59.085, 37.180 61.250 M 3.200 75.200 C 0.719 77.681, 2.618 84, 5.844 84 C 6.820 84, 8.491 84.643, 9.559 85.429 C 11.410 86.791, 11.416 86.890, 9.683 87.561 C 8.683 87.949, 7.356 87.756, 6.733 87.133 C 5.109 85.509, 2 85.735, 2 87.477 C 2 90.038, 6.614 92.295, 10.399 91.585 C 13.916 90.925, 15 89.501, 15 85.541 C 15 82.866, 13.578 81.533, 9.750 80.619 C 8.238 80.258, 7 79.295, 7 78.481 C 7 76.814, 9.551 76.464, 10.500 78 C 11.404 79.462, 15 79.223, 15 77.700 C 15 75.335, 12.655 74, 8.500 74 C 6.245 74, 3.860 74.540, 3.200 75.200 M 17 82.437 C 17 90.333, 17.156 91, 19 91 C 20.706 91, 21.014 90.301, 21.096 86.250 L 21.191 81.500 22.771 86.250 C 23.805 89.357, 24.921 91, 26 91 C 27.079 91, 28.195 89.357, 29.229 86.250 L 30.809 81.500 30.904 86.250 C 30.986 90.301, 31.294 91, 33 91 C 34.843 91, 35 90.333, 35 82.500 L 35 74 32.014 74 C 29.307 74, 28.922 74.422, 27.886 78.538 C 26.611 83.602, 25.975 83.533, 24.474 78.168 C 23.595 75.027, 22.984 74.455, 20.224 74.187 L 17 73.873 17 82.437 M 38.419 75.349 C 38.135 76.091, 38.036 79.789, 38.201 83.565 C 38.495 90.309, 38.556 90.448, 41.632 91.327 C 43.837 91.957, 45.614 91.816, 47.632 90.852 C 50.285 89.585, 50.523 89.006, 50.800 83.154 C 50.980 79.349, 50.632 76.262, 49.928 75.413 C 48.370 73.536, 39.135 73.485, 38.419 75.349 M 53 82.500 C 53 90.241, 53.173 91, 54.937 91 C 56.391 91, 56.951 90.190, 57.187 87.750 L 57.500 84.500 59.466 87.750 C 60.799 89.955, 62.196 91, 63.811 91 L 66.190 91 63.541 86.480 C 60.906 81.983, 60.902 81.946, 62.782 79.230 C 66.241 74.234, 66.277 74, 63.585 74 C 61.757 74, 60.557 74.905, 59.278 77.250 L 57.505 80.500 57.189 77.250 C 56.952 74.811, 56.390 74, 54.937 74 C 53.173 74, 53 74.759, 53 82.500 M 67.471 75.250 C 67.214 75.938, 67.116 79.650, 67.252 83.500 L 67.500 90.500 72.834 90.805 C 77.525 91.074, 78.125 90.893, 77.815 89.305 C 77.558 87.988, 76.724 87.587, 74.731 87.822 C 72.532 88.081, 72 87.740, 72 86.072 C 72 84.529, 72.638 84, 74.500 84 C 76.056 84, 77 83.433, 77 82.500 C 77 81.567, 76.056 81, 74.500 81 C 71.036 81, 71.247 78.220, 74.741 77.816 C 76.395 77.626, 77.615 76.805, 77.815 75.750 C 78.096 74.269, 77.363 74, 73.042 74 C 69.874 74, 67.760 74.474, 67.471 75.250 M 80.419 75.349 C 80.135 76.091, 80.036 79.789, 80.201 83.565 C 80.495 90.309, 80.556 90.448, 83.632 91.327 C 85.837 91.957, 87.614 91.816, 89.632 90.852 C 92.285 89.585, 92.523 89.006, 92.800 83.154 C 92.980 79.349, 92.632 76.262, 91.928 75.413 C 90.370 73.536, 81.135 73.485, 80.419 75.349 M 85.094 77.942 C 84.342 78.406, 83.992 80.395, 84.185 83.099 C 84.445 86.728, 84.851 87.500, 86.500 87.500 C 88.168 87.500, 88.550 86.733, 88.800 82.876 C 89.106 78.142, 87.732 76.311, 85.094 77.942 M 42.195 82.750 C 42.451 86.732, 42.823 87.500, 44.500 87.500 C 46.177 87.500, 46.549 86.732, 46.805 82.750 C 47.096 78.219, 46.989 78, 44.500 78 C 42.011 78, 41.904 78.219, 42.195 82.750" stroke="none" fill="#000000" fill-rule="evenodd"/>
</svg>